<?xml version="1.0" encoding="UTF-8" standalone="no"?>
<!DOCTYPE svg PUBLIC "-//W3C//DTD SVG 1.1//EN" "http://www.w3.org/Graphics/SVG/1.1/DTD/svg11.dtd">
<!-- Created with Vectornator (http://vectornator.io/) -->
<svg height="1024.0pt" stroke-miterlimit="10" style="fill-rule:nonzero;clip-rule:evenodd;stroke-linecap:round;stroke-linejoin:round;" version="1.1" viewBox="0 0 1024 1024" width="1024.0pt" xml:space="preserve" xmlns="http://www.w3.org/2000/svg" xmlns:xlink="http://www.w3.org/1999/xlink">
<defs/>
<g id="图层-1">
<g opacity="1">
<g opacity="1">
<path d="M92.8142 98.1095C91.9134 99.4839 91.2782 101.151 91.0276 103.214C76.3001 224.487 102.887 334.776 184.569 411.402C214.376 443.405 252.865 469.055 301.814 485.769C346.445 501.009 409.184 518.719 454.856 495.883C463.117 491.752 469.923 486.724 475.912 481.207C481.429 475.218 486.457 468.412 490.587 460.151C513.423 414.479 495.714 351.74 480.474 307.11C463.76 258.16 438.109 219.672 406.107 189.864C329.48 108.182 219.192 81.5953 97.9188 96.3229C95.8557 96.5734 94.1886 97.2087 92.8142 98.1095Z" fill="#ffc922" fill-rule="nonzero" opacity="1" stroke="none"/>
<path d="M921.759 98.1095C922.659 99.4839 923.295 101.151 923.545 103.214C938.273 224.487 911.686 334.776 830.004 411.402C800.196 443.405 761.708 469.055 712.758 485.769C668.128 501.009 605.389 518.719 559.717 495.883C551.456 491.752 544.65 486.724 538.661 481.207C533.144 475.218 528.116 468.412 523.985 460.151C501.149 414.479 518.859 351.74 534.099 307.11C550.813 258.16 576.463 219.672 608.466 189.864C685.092 108.182 795.381 81.5953 916.654 96.3229C918.717 96.5734 920.384 97.2087 921.759 98.1095Z" fill="#49bb67" fill-rule="nonzero" opacity="1" stroke="none"/>
<path d="M92.8142 925.89C91.9134 924.516 91.2782 922.849 91.0276 920.786C76.3001 799.513 102.887 689.224 184.569 612.598C214.376 580.595 252.865 554.945 301.814 538.231C346.445 522.991 409.184 505.281 454.856 528.117C463.117 532.248 469.923 537.276 475.912 542.793C481.429 548.782 486.457 555.588 490.587 563.849C513.423 609.521 495.714 672.26 480.474 716.89C463.76 765.84 438.109 804.328 406.107 834.136C329.48 915.818 219.192 942.405 97.9188 927.677C95.8557 927.427 94.1886 926.791 92.8142 925.89Z" fill="#3c9efd" fill-rule="nonzero" opacity="1" stroke="none"/>
<path d="M921.759 925.89C922.659 924.516 923.295 922.849 923.545 920.786C938.273 799.513 911.686 689.224 830.004 612.598C800.196 580.595 761.708 554.945 712.758 538.231C668.128 522.991 605.389 505.281 559.717 528.117C551.456 532.248 544.65 537.276 538.661 542.793C533.144 548.782 528.116 555.588 523.985 563.849C501.149 609.521 518.859 672.26 534.099 716.89C550.813 765.84 576.463 804.328 608.466 834.136C685.092 915.818 795.381 942.405 916.654 927.677C918.717 927.427 920.384 926.791 921.759 925.89Z" fill="#ffa03c" fill-rule="nonzero" opacity="1" stroke="none"/>
</g>
</g>
<g opacity="1">
<path d="M578.201 380.782C610.971 380.782 636.633 386.521 655.186 398C682.162 414.5 689.894 443.411 678.383 484.733L631.602 484.733C636.674 461.632 632.725 444.81 619.753 434.264C606.781 423.718 586.681 418.445 559.451 418.445C527.155 418.445 494.847 429.421 462.526 451.374C430.205 473.326 403.908 506.039 383.636 549.513C366.107 587.105 360.942 617.702 368.142 641.304C375.342 664.907 399.522 676.708 440.683 676.708C472.187 676.708 502.133 668.422 530.52 651.85C558.908 635.278 581.97 608.483 599.706 571.466L490.471 571.466L507.03 535.955L660.197 535.955L581.315 705.117L550.919 705.117L558.489 664.44C535.073 680.366 515.752 691.414 500.527 697.584C474.837 708.201 446.002 713.51 414.024 713.51C372.704 713.51 342.817 701.386 324.361 677.138C306.091 646.721 309.334 604.968 334.089 551.881C358.777 498.937 394.245 456.826 440.492 425.547C484.488 395.704 530.391 380.782 578.201 380.782Z" fill="#ffffff" fill-rule="nonzero" opacity="1" stroke="none"/>
</g>
</g>
</svg>
